<svg id="svg" version="1.1" xmlns="http://www.w3.org/2000/svg" xmlns:xlink="http://www.w3.org/1999/xlink" width="400" height="216.27906976744188" viewBox="0, 0, 400,216.27906976744188"><g id="svgg"><path id="path0" d="M198.701 23.008 C 198.224 23.263,197.494 23.679,197.078 23.931 C 196.663 24.183,195.282 24.933,194.010 25.597 C 192.738 26.260,191.083 27.135,190.332 27.541 C 186.988 29.347,185.375 30.207,183.559 31.156 C 182.488 31.715,181.076 32.466,180.422 32.825 C 179.146 33.524,176.715 34.813,173.067 36.723 C 171.817 37.377,170.698 37.987,170.579 38.077 C 170.460 38.168,169.340 38.775,168.091 39.427 C 166.842 40.078,165.430 40.832,164.954 41.102 C 164.478 41.372,163.115 42.102,161.925 42.723 C 160.736 43.345,159.373 44.074,158.897 44.344 C 158.421 44.614,156.814 45.470,155.327 46.247 C 153.840 47.023,151.796 48.091,150.784 48.620 C 149.773 49.148,148.848 49.658,148.729 49.753 C 148.610 49.848,147.150 50.630,145.484 51.492 C 143.818 52.353,142.358 53.130,142.239 53.217 C 142.037 53.366,139.005 54.982,136.290 56.388 C 135.635 56.726,135.068 57.077,135.028 57.166 C 134.988 57.255,134.822 57.328,134.659 57.328 C 134.496 57.328,133.865 57.622,133.257 57.980 C 132.649 58.339,130.916 59.274,129.407 60.059 C 127.898 60.845,126.566 61.562,126.447 61.653 C 126.328 61.744,125.111 62.404,123.743 63.120 C 122.374 63.837,120.768 64.689,120.173 65.014 C 118.864 65.731,116.066 67.220,113.582 68.522 C 112.575 69.050,111.261 69.752,110.662 70.081 C 110.063 70.410,108.502 71.241,107.193 71.927 C 105.884 72.612,104.716 73.245,104.597 73.332 C 104.478 73.419,103.122 74.147,101.584 74.949 C 100.045 75.750,98.585 76.531,98.339 76.682 C 97.825 76.998,95.110 78.443,91.509 80.316 C 90.141 81.028,88.800 81.748,88.530 81.916 C 88.260 82.085,86.702 82.910,85.069 83.749 C 83.435 84.589,81.999 85.358,81.878 85.457 C 81.757 85.556,80.832 86.066,79.823 86.590 C 75.633 88.764,72.350 90.500,72.147 90.649 C 72.028 90.736,70.860 91.368,69.551 92.053 C 68.242 92.737,67.074 93.371,66.955 93.461 C 66.836 93.550,65.522 94.255,64.035 95.027 C 61.063 96.569,59.524 97.387,59.099 97.650 C 58.750 97.865,59.069 98.293,59.893 98.716 C 60.208 98.878,60.806 99.208,61.222 99.451 C 61.639 99.693,63.294 100.645,64.900 101.565 C 66.506 102.486,67.918 103.315,68.037 103.409 C 68.156 103.502,68.740 103.848,69.335 104.177 C 71.652 105.461,71.949 105.634,72.505 106.029 C 72.821 106.253,73.135 106.436,73.204 106.436 C 73.272 106.436,73.861 106.777,74.512 107.193 C 75.163 107.610,75.751 107.950,75.818 107.950 C 75.885 107.950,76.725 108.437,77.685 109.032 C 78.644 109.627,79.460 110.114,79.498 110.114 C 79.536 110.114,81.597 111.293,84.078 112.734 C 86.559 114.175,89.027 115.602,89.562 115.904 C 90.097 116.207,91.168 116.843,91.942 117.317 C 92.715 117.790,93.835 118.440,94.429 118.761 C 95.024 119.081,97.215 120.347,99.297 121.573 C 101.379 122.800,103.472 124.008,103.948 124.260 C 104.424 124.511,104.846 124.789,104.886 124.878 C 104.925 124.968,105.043 125.041,105.148 125.041 C 105.253 125.041,106.222 125.576,107.301 126.230 C 108.380 126.885,109.307 127.420,109.360 127.420 C 109.413 127.420,110.116 127.824,110.921 128.318 C 111.726 128.812,112.823 129.456,113.359 129.750 C 113.894 130.043,114.449 130.394,114.593 130.528 C 114.959 130.872,115.024 152.114,114.662 153.052 C 114.147 154.385,115.205 156.564,117.036 157.944 C 117.572 158.347,118.058 158.740,118.118 158.816 C 118.209 158.932,122.435 160.990,123.851 161.607 C 125.011 162.114,129.135 163.353,131.747 163.980 C 133.353 164.366,134.862 164.761,135.100 164.858 C 135.338 164.956,135.873 165.083,136.290 165.141 C 136.706 165.200,137.485 165.353,138.021 165.483 C 141.381 166.296,151.180 167.900,154.678 168.210 C 155.333 168.268,157.036 168.455,158.464 168.625 C 159.892 168.796,161.936 169.040,163.007 169.168 C 165.101 169.418,167.943 169.642,175.771 170.175 C 186.687 170.917,213.659 170.916,224.337 170.172 C 233.653 169.523,235.250 169.397,236.874 169.183 C 239.045 168.898,242.384 168.519,244.781 168.286 C 248.938 167.882,258.514 166.321,261.979 165.483 C 262.515 165.353,263.294 165.200,263.710 165.141 C 264.127 165.083,264.662 164.958,264.900 164.863 C 265.138 164.769,266.647 164.375,268.253 163.988 C 270.876 163.355,273.895 162.488,275.068 162.030 C 275.306 161.937,275.841 161.738,276.257 161.587 C 277.053 161.300,280.311 159.739,281.228 159.208 C 284.361 157.389,286.038 154.775,285.326 152.817 C 285.073 152.123,285.030 150.090,285.081 141.312 L 285.143 130.650 287.028 129.457 C 291.079 126.894,294.864 124.608,295.057 124.608 C 295.168 124.608,295.291 124.529,295.331 124.432 C 295.394 124.278,302.889 119.579,304.745 118.531 C 305.470 118.121,307.546 116.810,308.536 116.137 C 308.859 115.918,309.370 115.738,309.672 115.738 L 310.222 115.738 310.222 127.621 C 310.222 140.656,310.308 139.792,308.928 140.506 C 304.024 143.042,305.142 151.503,310.616 153.282 C 318.383 155.807,323.582 145.243,316.857 140.598 C 316.283 140.202,315.723 139.709,315.614 139.504 C 315.400 139.105,315.331 113.364,315.542 112.579 C 315.625 112.268,316.586 111.621,318.591 110.524 C 320.200 109.644,322.261 108.509,323.171 108.003 C 324.080 107.496,325.189 106.913,325.635 106.708 C 326.082 106.502,326.447 106.259,326.447 106.169 C 326.447 106.078,326.532 106.003,326.635 106.003 C 326.739 106.003,327.769 105.468,328.925 104.813 C 330.080 104.159,331.068 103.624,331.120 103.624 C 331.172 103.624,331.578 103.396,332.022 103.118 C 332.465 102.840,333.656 102.185,334.667 101.663 C 335.679 101.140,337.113 100.345,337.854 99.897 C 338.596 99.448,339.255 99.081,339.319 99.081 C 339.647 99.081,341.156 97.956,341.053 97.789 C 340.987 97.681,340.667 97.459,340.342 97.294 C 338.703 96.461,334.046 94.004,333.478 93.672 C 333.121 93.464,331.758 92.734,330.449 92.050 C 329.140 91.367,327.972 90.736,327.853 90.648 C 327.734 90.561,326.517 89.905,325.149 89.191 C 321.388 87.227,318.816 85.857,318.334 85.562 C 318.096 85.416,316.733 84.686,315.305 83.939 C 313.878 83.193,312.418 82.411,312.061 82.202 C 311.704 81.992,310.487 81.337,309.356 80.746 C 305.727 78.847,303.003 77.405,301.893 76.795 C 301.298 76.468,299.935 75.738,298.864 75.173 C 297.793 74.607,296.479 73.900,295.944 73.600 C 295.408 73.300,294.045 72.573,292.915 71.985 C 291.785 71.396,290.373 70.643,289.778 70.311 C 288.772 69.749,287.780 69.221,282.964 66.683 C 281.952 66.150,280.701 65.479,280.182 65.190 C 279.664 64.902,278.203 64.121,276.937 63.456 C 275.671 62.790,274.538 62.174,274.419 62.087 C 274.300 61.999,272.839 61.223,271.174 60.361 C 269.508 59.500,268.048 58.721,267.929 58.630 C 267.810 58.540,266.544 57.858,265.116 57.115 C 261.397 55.179,258.511 53.648,257.761 53.213 C 257.404 53.006,255.846 52.179,254.300 51.375 C 252.753 50.571,251.390 49.839,251.271 49.748 C 251.152 49.657,250.085 49.078,248.899 48.461 C 247.714 47.844,246.254 47.068,245.654 46.738 C 244.565 46.137,242.298 44.928,238.832 43.101 C 237.820 42.568,236.555 41.887,236.019 41.588 C 235.484 41.289,233.829 40.414,232.342 39.644 C 230.855 38.874,229.540 38.171,229.421 38.081 C 229.302 37.990,228.280 37.430,227.150 36.835 C 223.158 34.735,221.190 33.685,220.227 33.141 C 219.692 32.839,218.280 32.087,217.090 31.470 C 215.900 30.852,213.467 29.565,211.682 28.608 C 209.897 27.652,208.096 26.689,207.680 26.469 C 207.263 26.248,206.890 25.995,206.851 25.906 C 206.811 25.817,206.652 25.744,206.498 25.744 C 206.344 25.744,205.403 25.290,204.407 24.736 C 199.865 22.209,200.075 22.272,198.701 23.008 M207.031 84.370 C 214.070 84.619,221.450 85.110,224.770 85.551 C 226.019 85.717,228.015 85.966,229.205 86.104 C 230.395 86.243,231.952 86.455,232.666 86.576 C 233.380 86.696,234.451 86.873,235.046 86.969 C 237.894 87.425,239.097 87.646,240.995 88.063 C 244.338 88.796,247.794 89.641,248.907 89.998 C 249.272 90.115,249.736 90.211,249.937 90.211 C 250.139 90.211,250.472 90.301,250.679 90.411 C 250.886 90.521,252.077 90.917,253.326 91.290 C 255.576 91.961,256.978 92.454,257.704 92.829 C 257.911 92.936,258.256 93.023,258.472 93.023 C 258.688 93.023,258.957 93.101,259.070 93.195 C 259.183 93.290,259.665 93.499,260.141 93.659 C 260.617 93.819,261.541 94.188,262.196 94.479 C 262.850 94.770,263.775 95.182,264.251 95.393 C 270.804 98.305,277.376 102.596,281.481 106.641 C 283.676 108.804,283.827 109.142,283.828 111.881 C 283.830 115.386,283.755 115.450,281.809 113.617 C 277.317 109.386,266.718 103.564,259.275 101.238 C 258.799 101.089,258.215 100.895,257.977 100.806 C 257.739 100.717,257.155 100.538,256.679 100.408 C 256.203 100.278,254.840 99.886,253.651 99.537 C 250.754 98.688,249.361 98.324,247.810 98.012 C 247.096 97.868,246.171 97.664,245.754 97.560 C 244.618 97.273,243.044 96.951,240.995 96.585 C 239.984 96.404,238.621 96.159,237.966 96.041 C 234.860 95.479,229.962 94.865,226.066 94.549 C 224.696 94.438,223.430 94.297,223.253 94.235 C 220.080 93.125,179.926 93.124,176.750 94.233 C 176.575 94.294,175.261 94.443,173.830 94.563 C 169.905 94.893,165.898 95.380,163.115 95.866 C 161.183 96.204,153.566 97.718,151.433 98.189 C 149.590 98.595,144.469 100.015,143.537 100.377 C 143.299 100.470,142.666 100.664,142.131 100.808 C 141.595 100.952,140.988 101.158,140.782 101.265 C 140.575 101.372,140.306 101.460,140.184 101.460 C 139.818 101.460,132.208 104.680,130.233 105.671 C 125.955 107.817,121.374 110.769,119.087 112.852 C 116.236 115.450,116.387 115.500,116.387 111.960 L 116.387 109.047 117.090 108.234 C 118.256 106.886,119.905 105.279,120.822 104.595 C 121.298 104.241,121.736 103.899,121.796 103.836 C 123.456 102.085,131.159 97.388,135.208 95.658 C 135.506 95.531,136.187 95.236,136.723 95.002 C 137.258 94.769,138.231 94.346,138.886 94.061 C 139.540 93.777,140.514 93.410,141.049 93.245 C 141.585 93.080,142.120 92.882,142.239 92.804 C 142.358 92.726,143.916 92.199,145.700 91.633 C 147.485 91.066,149.114 90.515,149.321 90.407 C 149.528 90.299,149.861 90.211,150.063 90.211 C 150.264 90.211,150.728 90.114,151.093 89.996 C 152.085 89.675,158.814 88.060,160.246 87.799 C 165.115 86.912,167.789 86.483,170.795 86.110 C 171.866 85.977,173.813 85.730,175.122 85.563 C 178.750 85.098,183.347 84.773,190.373 84.482 C 198.994 84.125,199.932 84.119,207.031 84.370 M212.764 143.217 C 220.684 143.453,227.853 143.763,232.450 144.067 C 238.545 144.471,241.791 144.725,243.483 144.932 C 244.435 145.048,246.236 145.251,247.485 145.383 C 250.922 145.745,254.522 146.225,256.571 146.594 C 257.582 146.776,258.897 147.007,259.492 147.107 C 261.869 147.506,264.502 148.013,265.116 148.189 C 265.473 148.291,266.155 148.477,266.631 148.602 C 270.733 149.676,271.031 149.778,273.243 150.854 C 278.508 153.417,276.217 157.072,268.253 158.813 C 267.189 159.046,266.640 159.180,264.013 159.852 C 262.331 160.282,261.228 160.484,258.017 160.947 C 257.207 161.064,256.470 161.205,256.381 161.260 C 256.172 161.389,253.103 161.814,250.730 162.042 C 246.877 162.413,244.627 162.668,244.278 162.773 C 243.483 163.012,232.090 163.845,224.878 164.190 C 207.449 165.025,192.489 165.025,175.122 164.191 C 167.681 163.833,156.410 163.005,155.760 162.768 C 155.461 162.659,154.353 162.536,149.270 162.044 C 146.965 161.821,144.397 161.462,143.176 161.193 C 142.661 161.079,141.509 160.874,140.617 160.739 C 139.724 160.603,137.972 160.250,136.723 159.953 C 135.473 159.657,134.062 159.328,133.586 159.221 C 133.110 159.115,132.331 158.940,131.855 158.833 C 123.530 156.947,121.390 153.146,127.218 150.594 C 128.861 149.874,129.056 149.804,130.882 149.284 C 134.606 148.223,138.414 147.323,139.183 147.323 C 139.492 147.323,140.160 147.231,140.668 147.120 C 143.376 146.523,147.631 145.899,152.515 145.382 C 153.764 145.249,155.614 145.048,156.625 144.934 C 169.329 143.502,195.494 142.702,212.764 143.217 M306.791 159.167 C 306.650 160.922,306.437 163.770,306.319 165.495 C 306.200 167.220,306.009 169.800,305.893 171.228 C 305.778 172.655,305.585 175.187,305.463 176.852 C 305.341 178.518,305.187 180.368,305.120 180.963 C 305.053 181.558,304.915 183.407,304.813 185.073 C 304.397 191.868,304.169 195.061,304.053 195.724 C 303.878 196.718,304.297 196.474,305.354 194.966 C 309.314 189.319,315.805 186.219,319.514 188.204 L 319.957 188.441 319.957 172.185 L 319.957 155.929 319.254 156.040 C 318.867 156.102,317.820 156.369,316.928 156.634 C 313.869 157.542,310.073 157.350,307.791 156.170 C 307.099 155.813,307.048 155.963,306.791 159.167 " stroke="none" fill="#16d69c" fill-rule="evenodd"></path></g></svg>